<svg id="swisscom_logo" xmlns="http://www.w3.org/2000/svg" viewBox="0 0 149.8 175.72"><defs><style>.cls-1{fill:#015;}.cls-2{fill:none;}</style></defs><title>Swisscom_Lifeform_RGB_Small_Navy</title><path class="cls-1" d="M53,100.94c-1.15,1.82-3.23,4.64-3.23,8.8,0,5.22,4.18,12.34,14.61,17a59.56,59.56,0,0,1-4.06-13.16C59.48,109.57,56.84,104.84,53,100.94ZM81.92,64.59A214.74,214.74,0,0,1,99.51,77.38a40.3,40.3,0,0,0,.35-5.33c0-13.64-8.46-21.66-16.85-24.52a22.12,22.12,0,0,0-6.75-1.22,17.08,17.08,0,0,0-1.74.1V59.48C76.5,60.94,79.06,62.66,81.92,64.59Zm-11-8c-4.61-3.79-10.12-9.9-10.12-13.37a4.28,4.28,0,0,1,.11-.91,5.53,5.53,0,0,1,1.92-3.12,9.39,9.39,0,0,1,2.91-1.64,12.91,12.91,0,0,1,3.69-.76,5.19,5.19,0,0,1,1.48.1Zm42,49.87a25.85,25.85,0,0,1-4.54,13.56,33.14,33.14,0,0,1-5.91,6.52,43.81,43.81,0,0,1-6.43,4.51,53.52,53.52,0,0,1-5.45,2.76,62.31,62.31,0,0,1-6.38,2.38,64.7,64.7,0,0,1-7.54,1.86,56.9,56.9,0,0,1-5.78.78s0-75.76,0-75.82h0a6.39,6.39,0,0,0-5.2,4c-.92,2-1.41,4.31-2.76,6.15-2.81,3.84-10.06,2.94-11.18,8.21-1.63,7.74,8.45,9.37,11.43,14.75,2,3.54,1.33,8.84,4.11,11.92v16.57c-.23-.44-.44-.9-.63-1.36-.28-.65-.52-1.32-.74-2-.15-.45-.29-.9-.43-1.35-1.24-4.24-1.82-8.62-3.67-12.68a38.52,38.52,0,0,0-8.26-10.87c-2.24-2.16-4.63-4.17-7-6.19l-1-.89a36.68,36.68,0,0,1-5.5-5.65,15.87,15.87,0,0,1-2.94-6.4,13.62,13.62,0,0,1-.26-2,11.76,11.76,0,0,1,0-1.88c.28-3.84,2.23-7.24,4.7-10.21a45.59,45.59,0,0,1,4.27-4.39c1.54-1.42,3.15-2.76,4.79-4.06,2.49-2,7.92-5.92,8.3-6.2,2.35,4.11,6.82,8.62,12,12.67,6,4.69,19.2,12.51,27.87,20.24,1.5,1.33,2.89,2.67,4.17,4h0a47.28,47.28,0,0,1,6.12,7.63,26,26,0,0,1,3.28,7.43A20.18,20.18,0,0,1,113,106.51Z"/><rect class="cls-2" x="-12.96" y="12.96" width="175.72" height="149.8" transform="translate(162.76 12.96) rotate(90)"/></svg>